STARTFONT 2.1
FONT -FontForge-Knitting-Regular-R-Normal--78-750-75-75-P-648-ISO8859-1
SIZE 75 75 75
FONTBOUNDINGBOX 76 76 1 -14
COMMENT "Generated by fontforge, http://fontforge.sourceforge.net"
COMMENT "Copyright (c) 2023, Jose D. Montoya"
COMMENT "Based heavily on the svg files from https://github.com/marnen/knitting_symbols"
STARTPROPERTIES 29
FOUNDRY "FontForge"
FAMILY_NAME "Knitting"
WEIGHT_NAME "Regular"
SLANT "R"
SETWIDTH_NAME "Normal"
ADD_STYLE_NAME ""
PIXEL_SIZE 78
POINT_SIZE 750
RESOLUTION_X 75
RESOLUTION_Y 75
SPACING "P"
AVERAGE_WIDTH 648
CHARSET_REGISTRY "ISO8859"
CHARSET_ENCODING "1"
FONTNAME_REGISTRY ""
CHARSET_COLLECTIONS "ISOLatin1Encoding"
FONT_NAME "Knitting"
FACE_NAME "Knitting"
COPYRIGHT "Copyright (c) 2023, Jose D. Montoya"
FONT_VERSION "001.000"
FONT_ASCENT 62
FONT_DESCENT 16
UNDERLINE_POSITION -8
UNDERLINE_THICKNESS 4
CAP_HEIGHT 47
RAW_ASCENT 800
RAW_DESCENT 200
FIGURE_WIDTH -1
AVG_UPPERCASE_WIDTH 610
ENDPROPERTIES
CHARS 58
STARTCHAR A
ENCODING 65
SWIDTH 653 0
DWIDTH 51 0
BBX 33 72 9 -13
BITMAP
000FF80000
007FFF0000
00FFFFC000
03F80FE000
07C001F000
0F8000F800
1F00003C00
1E00001E00
3C00000E00
3800000F00
7800000700
7000000780
F000000380
F000000380
E000000380
E000000380
E000000380
E000000380
E000000380
E000000380
E000000380
E000000380
E000000380
E000000380
E000000380
E000000380
E000000380
E000000380
E000000380
E000000380
E000000380
E000000380
E000000380
E000000380
E000000380
E000000380
E000000380
E000000380
E000000380
E000000380
E000000380
E000000380
E000000380
E000000380
E000000380
E000000380
E000000380
E000000380
E000000380
E000000380
E000000380
E000000380
E000000380
E000000380
E000000380
E000000380
E000000380
E000000380
E000000380
E000000380
E000000380
E000000380
E000000380
E000000380
E000000380
E000000380
E000000380
E000000380
E000000380
E000000380
E000000380
E000000380
ENDCHAR
STARTCHAR B
ENCODING 66
SWIDTH 543 0
DWIDTH 42 0
BBX 33 74 5 -14
BITMAP
0007F00000
003FFE0000
007FFF0000
00FC1FC000
01F007C000
03C001E000
078000F000
0700007000
0F00007800
0E00003800
0E00003800
1E00003C00
1E00003C00
1E00003C00
1E00003C00
0E00003800
0E00003800
0F00007800
0700007000
078000F000
03C001E000
03E003E000
01F80FC000
007FFF0000
003FFF0000
00FFFF8000
03FC1FE000
07E003F000
0F8000F800
1F00007C00
1E00003C00
3C00001E00
7800000F00
7800000F00
7000000700
F000000780
F000000380
E000000380
E000000380
E000000380
E000000380
E000000380
E000000380
E000000380
E000000380
E000000380
E000000380
E000000380
E000000380
E000000380
E000000380
E000000380
E000000380
E000000380
E000000380
E000000380
E000000380
E000000380
E000000380
E000000380
E000000380
E000000380
E000000380
E000000380
E000000380
E000000380
E000000380
E000000380
E000000380
E000000380
E000000380
E000000380
E000000380
E000000380
ENDCHAR
STARTCHAR C
ENCODING 67
SWIDTH 824 0
DWIDTH 64 0
BBX 50 52 6 6
BITMAP
00000000000380
000000000007C0
00000000000FC0
00000000001FC0
00000000003F80
00000000007F00
0000000000FE00
0000000001FC00
0000000003F800
0000000007F000
000000000FE000
000000001FC000
000000003F8000
000000007F0000
00000000FE0000
00000001FC0000
00000003F80000
00000007F00000
0000000FE00000
0000001FC00000
0000003F800000
0000007F000000
000000FE000000
000001FC000000
000003F8000000
000007F8000000
00000FFC000000
00001FFE000000
00003FFF000000
00007FFF800000
0000FFFFC00000
0001FFFFE00000
0003FFFFF00000
0007FFFBF80000
000FEFFDFC0000
001FCFFCFE0000
003F9F7E7F0000
007F1F3E3F8000
00FE1F3E1FC000
01FC3E3F0FE000
03F83E1F07F000
07F03E1F03F800
0FE07C0F81FC00
1FC07C0F80FE00
3F80FC0F807F00
7F00F807C03F80
FE00F807C01FC0
FC01F807C00FC0
F801F003E007C0
F001F003E003C0
0001E003E00100
0000E001C00000
ENDCHAR
STARTCHAR D
ENCODING 68
SWIDTH 824 0
DWIDTH 64 0
BBX 51 52 7 6
BITMAP
000000E0000000
000001F0000000
000001F0000000
000001F0000000
000001F0000000
000001F0000000
000001F0000000
000001F0000000
000001F0000000
000001F0000000
000001F0000000
000001F0000000
000001F0000000
000001F0000000
000001F0000000
000001F0000000
000001F0000000
000001F0000000
000001F0000000
000001F0000000
000001F0000000
000001F0000000
000001F0000000
000001F0000000
000001F0000000
000003F8000000
000007FC000000
00000FFE000000
00001FFF000000
00003FFF800000
00007FFFC00000
0000FFFFE00000
0001FFFFF00000
0003FFFFF80000
0007FFFFFC0000
000FFFFF7E0000
001FFFFFBF0000
003FBFFFDF8000
007F7FF7CFC000
00FE7DF7E7E000
01FCFDF3E3F000
03F8F9F3F1F800
07F1F9F1F0FC00
0FE1F1F1F87E00
1FC3F1F0F83F00
3F83E1F0FC1F80
7F07E1F07C0FC0
FE07C1F07E07E0
FC0FC1F03E03E0
780F81F03E01C0
000F00F01E0080
000200E00C0000
ENDCHAR
STARTCHAR E
ENCODING 69
SWIDTH 824 0
DWIDTH 64 0
BBX 51 52 8 6
BITMAP
70000000000000
78000000000000
FC000000000000
7E000000000000
3F000000000000
1F800000000000
0FC00000000000
07E00000000000
03F00000000000
01F80000000000
00FC0000000000
007E0000000000
003F0000000000
001F8000000000
000FC000000000
0007E000000000
0003F000000000
0001F800000000
0000FC00000000
00007E00000000
00003F00000000
00001F80000000
00000FC0000000
000007E0000000
000003F0000000
000003F8000000
000007FC000000
00000FFE000000
00001FFF000000
00003FFF800000
00007FFFC00000
0000FFFFE00000
0001FFFFF00000
0003FFFFF80000
0007FFFFFC0000
000FFFFF7E0000
001FFFFFBF0000
003FBFFF9F8000
007F7FF7CFC000
00FE7DF7E7E000
01FCFDF3E3F000
03F8F9F3F1F800
07F1F9F1F0FC00
0FE1F1F1F87E00
1FC3F1F0F83F00
3F83E1F0FC1F80
7F07E1F07C0FC0
FE0FC1F07E07E0
FC0F81F03E03E0
780F81F03E01C0
000F01F01E0080
000200600C0000
ENDCHAR
STARTCHAR F
ENCODING 70
SWIDTH 824 0
DWIDTH 64 0
BBX 51 52 6 6
BITMAP
000000000001C0
000000000003E0
000000000007E0
00000000000FC0
00000000001FC0
00000000003F80
00000000007F00
0000000000FE00
0000000001FC00
0000000003F800
0000000007F000
000000000FE000
000000001FC000
000000003F8000
000000007F0000
00000000FE0000
00000001FC0000
00000003F80000
00000007F00000
0000000FE00000
0000001FC00000
0000003F800000
0000007F000000
000000FE000000
000001FC000000
000003F8000000
000007FC000000
00000FFE000000
00001FFF000000
00003FFF800000
00007FFFC00000
0000FFFFE00000
0001FFFFF00000
0003FFFFF80000
0007FFFFFC0000
000FFFFFFE0000
001FFFFFFF0000
003FBFFFBF8000
007F7FFFDFC000
00FE7DF7CFE000
01FCFDF7E7F000
03F9F9F3E3F800
07F1F1F3F1FC00
0FE3F1F1F8FE00
1FC3E1F0F87F00
3F87E1F0FC3F80
7F07C1F07C1FC0
FE0FC1F07E0FE0
FC0F81F03E07E0
780F81F03E03C0
200F01F01E0000
000600E0080000
ENDCHAR
STARTCHAR G
ENCODING 71
SWIDTH 842 0
DWIDTH 66 0
BBX 53 52 7 7
BITMAP
0001E000000000
0003F000000000
0003F800000000
0001FC00000000
0000FF00000000
00007F80000000
00003FC0000000
00000FF0000000
000007F8000000
000003FC000000
000003FE000000
000007FF800000
00000FFFC00000
00003FDFE00000
00007F8FF00000
0000FF03FC0000
0001FE01FE0000
0007F800FF0000
000FF0003FC000
001FE0001FE000
003F80000FF000
00FF000007F800
01FE000001FE00
03FC000000FF00
0FF0003C007F80
1FE001FF803FC0
3FC003FFC00FF0
7F8007C3E007F8
FE000F00E003F8
FC000E00F000F8
78001E00600078
20001C00000030
00001C00000000
00003C00000000
0000387E000000
000039FF800000
00003BFFC00000
00003F81E00000
00003E00F00000
00003E00700000
00003C00700000
00003C00780000
00003C00780000
00001C00780000
00001C00700000
00001C00700000
00000E00F00000
00000F00E00000
00000783E00000
000003FFC00000
000001FF800000
0000007C000000
ENDCHAR
STARTCHAR H
ENCODING 72
SWIDTH 842 0
DWIDTH 66 0
BBX 54 52 6 7
BITMAP
000000001E0000
000000003F0000
000000007F0000
00000001FE0000
00000003FC0000
00000007F80000
0000000FE00000
0000003FC00000
0000007F800000
000000FF000000
000003FE000000
000007FF800000
00000FFFC00000
00001FFFE00000
00007F87F80000
0000FF03FC0000
0001FE01FE0000
0007F800FF0000
000FF0003FC000
001FE0001FE000
003FC0000FF000
00FF000003FC00
01FE000001FE00
03FC000000FF00
07F8007C007F80
1FE001FF001FE0
3FC007FFC00FF0
7F800783C007F8
FE000F01E003FC
FC001E00E000FC
78001C00600078
20001C00000030
00003800000000
00003800000000
0000387E000000
000039FF800000
00003BFFC00000
00003F01E00000
00003E00E00000
00003C00F00000
00003C00700000
00003C00700000
00003800700000
00003800700000
00003C00700000
00001C00700000
00001E00F00000
00000E01E00000
00000F83C00000
000007FFC00000
000003FF000000
0000007C000000
ENDCHAR
STARTCHAR I
ENCODING 73
SWIDTH 842 0
DWIDTH 66 0
BBX 53 51 7 8
BITMAP
0001C000000000
0003E000000000
0003F800000000
0003FC00000000
0001FE00000000
00007F00000000
00003FC0000000
00001FE0000000
00000FF0000000
000003FC000000
000003FE000000
000007FF000000
00000FFF800000
00001FDFE00000
00007F8FF00000
0000FF07F80000
0001FE01FE0000
0003F800FF0000
000FF0007F8000
001FE0003FC000
003FC0000FF000
00FF000007F800
01FE000003FC00
03FC000000FE00
07F00000007F80
1FE03FFFF03FC0
3FC03FFFF01FE0
7F803FFFF007F0
FE000000F003F8
FC000001E001F8
F8000001C00078
20000003C00030
00000003800000
00000007000000
00000007000000
0000000E000000
0000000E000000
0000001C000000
0000001C000000
0000003C000000
00000038000000
00000078000000
00000078000000
00000070000000
000000F0000000
000000F0000000
000000E0000000
000000E0000000
000001E0000000
000001E0000000
000001C0000000
ENDCHAR
STARTCHAR J
ENCODING 74
SWIDTH 842 0
DWIDTH 66 0
BBX 53 51 7 8
BITMAP
000000001E0000
000000003E0000
000000007F0000
00000000FE0000
00000003FC0000
00000007F80000
0000000FF00000
0000001FC00000
0000007F800000
000000FF000000
000001FE000000
000007FF000000
00000FFFC00000
00001FFFE00000
00003F8FF00000
0000FF03F80000
0001FE01FE0000
0003FC00FF0000
000FF0007F8000
001FE0001FE000
003FC0000FF000
007F000007F800
01FE000001FC00
03FC000000FF00
07F80000007F80
0FE03FFFF03FC0
3FC07FFFF00FF0
7F803FFFF007F8
FF000000E003F8
FC000001E000F8
78000001C00078
30000003800030
00000007800000
00000007000000
0000000F000000
0000000E000000
0000001E000000
0000001C000000
0000003C000000
00000038000000
00000038000000
00000078000000
00000070000000
000000F0000000
000000F0000000
000000E0000000
000000E0000000
000001E0000000
000001E0000000
000001C0000000
000001C0000000
ENDCHAR
STARTCHAR K
ENCODING 75
SWIDTH 842 0
DWIDTH 66 0
BBX 53 51 7 8
BITMAP
000000F8000000
000001F8000000
000001FC000000
000003FE000000
000007FF000000
00000FFF800000
00000FFFC00000
00001F8FC00000
00003F07E00000
00007E03F00000
0000FE01F80000
0001FC00FC0000
0003F800FE0000
0007F0007F0000
000FE0003F8000
001FC0001FC000
001F80000FE000
003F000007E000
007E000003F000
00FC000001F800
01FC000000FC00
03F80000007E00
07F00000007F00
0FE00000003F80
1FC00000001FC0
3F803FFFF00FE0
3F007FFFF007F0
7E003FFFF003F0
FC000000F001F8
F8000001E000F8
F8000001C00078
60000003C00030
00000003800000
00000007000000
00000007000000
0000000E000000
0000000E000000
0000001C000000
0000001C000000
0000003C000000
00000038000000
00000078000000
00000078000000
00000070000000
000000F0000000
000000F0000000
000000E0000000
000000E0000000
000001E0000000
000001E0000000
000001C0000000
ENDCHAR
STARTCHAR L
ENCODING 76
SWIDTH 911 0
DWIDTH 71 0
BBX 64 25 2 22
BITMAP
0000000000000003
000000000000001F
000000000000007F
00000000000003F8
0000000000001FC0
000000000000FF00
000000000003F800
00000000001FC000
0000000000FE0000
0000000003F80000
000000001FC00000
00000000FE000000
00000007F0000000
0000001FFC000000
000000FE3F800000
000007F00FE00000
00001FC001FC0000
0000FE00003F8000
0007F0000007F000
003F80000001FC00
00FE000000003F80
07F00000000007F0
3F800000000001FC
FE0000000000003F
F000000000000007
ENDCHAR
STARTCHAR M
ENCODING 77
SWIDTH 824 0
DWIDTH 64 0
BBX 51 51 7 7
BITMAP
000000000001C0
000000000003E0
000000000007E0
00000000000FC0
00000000001FC0
00000000003F80
00000000007F00
0000000000FE00
0000000001FC00
0000000003F800
0000000007F000
000000000FE000
000000001FC000
000000003F8000
000000007F0000
00000000FE0000
00000001FC0000
00000003F80000
00000007F00000
0000000FE00000
0000001FC00000
0000003F800000
0000007F000000
000000FE000000
000001FC000000
000003F8000000
000007FC000000
00000FFE000000
00001FFF000000
00003FBF800000
00007F1FC00000
0000FE0FE00000
0001FC07F00000
0003F803F80000
0007F001FC0000
000FE000FE0000
001FC0007F0000
003F80003F8000
007F00001FC000
00FE00000FE000
01FC000007F000
03F8000003F800
07F0000001FC00
0FE0000000FE00
1FC00000007F00
3F800000003F80
7F000000001FC0
FE000000000FE0
FC0000000007E0
780000000003C0
20000000000000
ENDCHAR
STARTCHAR N
ENCODING 78
SWIDTH 824 0
DWIDTH 64 0
BBX 51 55 7 3
BITMAP
000000000001C0
000000000003E0
000000000007E0
00000000000FE0
00000000001FC0
00000000003F80
00000000007F00
0000000000FE00
0000000001FC00
0000000003F800
0000000007F000
000000000FE000
000000001FC000
000000003F8000
000000007F0000
00000000FE0000
00000001FC0000
00000003F80000
00000007F00000
0000000FE00000
0000001FC00000
0000003F800000
0000007F000000
000000FE000000
000001FC000000
000003F8000000
000007FC000000
00000FFE000000
00001FFF000000
00003FBF800000
00007F1FC00000
0000FE0FE00000
0001FC07F00000
0003F803F80000
0007F001FC0000
000FE000FE0000
001FC0007F0000
003F80003F8000
007F00001FC000
00FE00000FE000
01FC000007F000
03F8000003F800
07F0000001FC00
0FE0000000FE00
1FC00000007F00
3F800000003F80
7F000000001FC0
7E000000000FE0
FC0000000007E0
780000000003E0
300FFFFFFE01C0
001FFFFFFF0000
001FFFFFFF0000
001FFFFFFF0000
000FFFFFFE0000
ENDCHAR
STARTCHAR O
ENCODING 79
SWIDTH 531 0
DWIDTH 41 0
BBX 29 50 6 8
BITMAP
00000070
000000F0
000000F8
000000F8
000000F8
000000F8
000000F8
000000F8
000000F8
000000F8
000000F8
F00000F8
FC0000F8
FF0000F8
FFC000F8
7FF000F8
1FFC00F8
07FE00F8
01FF80F8
007FE0F8
001FF8F8
0007FEF8
0003FFF8
0000FFF8
00003FF8
00000FF8
000003F8
000000F8
000000F8
000000F8
000000F8
000000F8
000000F8
000000F8
000000F8
000000F8
000000F8
000000F8
000000F8
000000F8
000000F8
000000F8
000000F8
000000F8
000000F8
000000F8
000000F8
000000F8
000000F8
000000F0
ENDCHAR
STARTCHAR P
ENCODING 80
SWIDTH 841 0
DWIDTH 66 0
BBX 29 50 23 8
BITMAP
F0000000
F0000000
F0000000
F0000000
F0000000
F0000000
F0000000
F0000000
F0000000
F0000000
F0000000
F00000F0
F00003F0
F0000FF8
F0003FF0
F000FFE0
F001FF80
F007FE00
F01FF800
F07FE000
F1FF8000
F7FE0000
FFFC0000
FFF00000
FFC00000
FF000000
FC000000
F0000000
F0000000
F0000000
F0000000
F0000000
F0000000
F0000000
F0000000
F0000000
F0000000
F0000000
F0000000
F0000000
F0000000
F0000000
F0000000
F0000000
F0000000
F0000000
F0000000
F0000000
F0000000
F0000000
ENDCHAR
STARTCHAR Q
ENCODING 81
SWIDTH 531 0
DWIDTH 41 0
BBX 5 53 19 6
BITMAP
F0
F8
F8
F8
F8
F8
F8
F8
F8
F8
F8
F8
F8
F8
F8
F8
F8
F8
F8
F8
F8
F8
F8
F8
F8
F8
F8
F8
F8
F8
F8
F8
F8
F8
F8
F8
F8
F8
F8
F8
F8
F8
F8
F8
F8
F8
F8
F8
F8
F8
F8
F0
70
ENDCHAR
STARTCHAR R
ENCODING 82
SWIDTH 911 0
DWIDTH 71 0
BBX 64 27 5 21
BITMAP
0000000000003800
000000000001FC00
E0000000000FFE00
FC000000003F8600
7F000000003C0700
0FE0000000000600
01FC000000003E00
007F80000001FC00
000FE0000007F000
0001FC00003F8000
00003F8001FC0000
00000FC007E00000
000001C03F800000
00000001FC000000
0000000FE0000000
0000003F80000000
000001FC03800000
00000FE003E00000
00007F0001FC0000
0001FC00003F8000
000FE000000FE000
007F00000001FC00
01FC000000003F80
0FE0000000000FE0
7F000000000001FC
F80000000000003F
E000000000000007
ENDCHAR
STARTCHAR S
ENCODING 83
SWIDTH 840 0
DWIDTH 66 0
BBX 53 5 6 30
BITMAP
7FFFFFFFFFFFF0
FFFFFFFFFFFFF8
FFFFFFFFFFFFF8
FFFFFFFFFFFFF8
7FFFFFFFFFFFF0
ENDCHAR
STARTCHAR T
ENCODING 84
SWIDTH 824 0
DWIDTH 64 0
BBX 51 50 5 8
BITMAP
70000000000000
F8000000000000
FC000000000000
FE000000000000
7F000000000000
3F800000000000
1FC00000000000
0FE00000000000
07F00000000000
03F80000000000
01FC0000000000
00FE0000000000
007F0000000000
003F8000000000
001FC000000000
000FE000000000
0007F000000000
0003F800000000
0001FC00000000
0000FE00000000
00007F00000000
00003F80000000
00001FC0000000
00000FE0000000
000007F0000000
000003F8000000
000001FC000000
000000FE000000
0000007F000000
0000003F800000
0000001FC00000
0000000FE00000
00000007F00000
00000003F80000
00000001FC0000
00000000FE0000
000000007F0000
000000003F8000
000000001FC000
000000000FE000
0000000007F000
0000000003F800
0000000001FC00
0000000000FE00
00000000007F00
00000000003F80
00000000001FC0
00000000000FE0
000000000007E0
000000000003C0
ENDCHAR
STARTCHAR U
ENCODING 85
SWIDTH 824 0
DWIDTH 64 0
BBX 50 51 7 7
BITMAP
00000000000380
000000000007C0
00000000000FC0
00000000001FC0
00000000003F80
00000000007F00
0000000000FE00
0000000001FC00
0000000003F800
0000000007F000
000000000FE000
000000001FC000
000000003F8000
000000007F0000
00000000FE0000
00000001FC0000
00000003F80000
00000007F00000
0000000FE00000
0000001FC00000
0000003F800000
0000007F000000
000000FE000000
000001FC000000
000003F8000000
000007F0000000
00000FE0000000
00001FC0000000
00003F80000000
00007F00000000
0000FE00000000
0001FC00000000
0003F800000000
0007F000000000
000FE000000000
001FC000000000
003F8000000000
007F0000000000
00FE0000000000
01FC0000000000
03F80000000000
07F00000000000
0FE00000000000
1FC00000000000
3F800000000000
7F000000000000
FE000000000000
FC000000000000
F8000000000000
F0000000000000
20000000000000
ENDCHAR
STARTCHAR V
ENCODING 86
SWIDTH 611 0
DWIDTH 48 0
BBX 44 73 2 -13
BITMAP
400000000020
E00000000070
F00000000070
7000000000F0
7000000000E0
7000000000E0
7800000000E0
3800000001E0
3800000001C0
3C00000001C0
1C00000003C0
1C0000000380
1C0000000380
1E0000000780
0E0000000700
0E0000000700
0F0000000700
070000000F00
070000000E00
078000000E00
038000001E00
038000001C00
038000001C00
03C000001C00
01C000003C00
01C000003800
01E000003800
00E000007800
00E000007000
00F000007000
00F00000F000
00700000E000
00700000E000
00780000E000
00380001E000
00380001C000
003C0001C000
001C0003C000
001C00038000
001C00038000
001E00078000
000E00078000
000E00070000
000F00070000
0007000F0000
0007000E0000
0007800E0000
0003801E0000
0003801C0000
0003801C0000
0003C01C0000
0001C03C0000
0001C0380000
0001E0380000
0000E0780000
0000E0700000
0000E0700000
0000F0F00000
000070F00000
000070E00000
000078E00000
000039E00000
000039C00000
00003DC00000
00001FC00000
00001F800000
00001F800000
00001F800000
00000F800000
00000F000000
00000F000000
000007000000
000006000000
ENDCHAR
STARTCHAR W
ENCODING 87
SWIDTH 611 0
DWIDTH 48 0
BBX 44 72 2 -12
BITMAP
600000000070
E00000000070
F00000000070
7000000000F0
7000000000E0
7800000000E0
3800000001E0
3800000001C0
3800000001C0
3C00000001C0
1C00000003C0
1C0000000380
1E0000000380
0E0000000780
0E0000000700
0E0000000700
0F0000000F00
070000000E00
070000000E00
078000000E00
038000001E00
038000001C00
03C000001C00
01C000003C00
7FFFFFFFFFF0
FFFFFFFFFFF0
FFFFFFFFFFF0
00E000007800
00E000007000
00F000007000
00700000F000
00700000E000
00780000E000
00780001E000
00380001C000
00380001C000
003C0001C000
001C0003C000
001C00038000
001E00038000
000E00078000
000E00070000
000E00070000
000F000F0000
0007000F0000
0007000E0000
0007800E0000
0003801E0000
0003801C0000
0003C01C0000
0003C03C0000
0001C0380000
0001C0380000
0001E0380000
0000E0780000
0000E0700000
0000F0700000
000070F00000
000070E00000
000070E00000
000079E00000
000039E00000
000039C00000
00003DC00000
00001FC00000
00001F800000
00001F800000
00001F800000
00000F000000
00000F000000
00000F000000
000007000000
ENDCHAR
STARTCHAR X
ENCODING 88
SWIDTH 911 0
DWIDTH 71 0
BBX 64 28 3 20
BITMAP
00000000000001F0
0000000000007FFC
E00000000007FFFE
FC000000003FE00F
7F00000001FE0007
0FE0000007F00007
01FC00001F80000E
007F00007E00001C
000FE001F0000038
0003F803C00000F0
00007E0F800003E0
00000E1E000007C0
0000003C00003F00
000800F00000FC00
001C01E00003F000
000E03C0001FC000
000F078000FE0000
0007EF000FF80000
0001FFFFFFC00000
00007FFFFC0F0000
00003DFE000FE000
000070000001FC00
0000600000007F80
0000E000000007F0
0000C000000001FE
0000C0003FFFE03F
0000C0003FFFE007
0000C00000000000
ENDCHAR
STARTCHAR Y
ENCODING 89
SWIDTH 824 0
DWIDTH 64 0
BBX 50 51 6 7
BITMAP
00000FFC000000
00007FFFC00000
0003FFFFF00000
000FFFFFFC0000
001FFFFFFF0000
007FF003FF8000
00FF80007FC000
01FE00001FE000
03FC000007F000
07F0000003F800
07E0000001FC00
0FC0000000FC00
1F800000007E00
1F000000003F00
3F000000003F00
3E000000001F00
7E000000000F80
7C000000000F80
7C000000000FC0
7C0000000007C0
F80000000007C0
F80000000007C0
F80000000007C0
F80000000003C0
F80000000003C0
F80000000003C0
F80000000003C0
F80000000003C0
F80000000007C0
F80000000007C0
F80000000007C0
7C0000000007C0
7C000000000F80
7C000000000F80
3E000000000F80
3E000000001F00
3F000000003F00
1F800000003E00
1F800000007E00
0FC0000000FC00
07E0000001FC00
03F0000003F800
03FC000007F000
01FE00001FE000
00FFC0007FC000
003FF803FF8000
001FFFFFFE0000
0007FFFFFC0000
0001FFFFF00000
00007FFF800000
000007FC000000
ENDCHAR
STARTCHAR Z
ENCODING 90
SWIDTH 824 0
DWIDTH 64 0
BBX 50 51 7 7
BITMAP
000003F0000000
00000FFC000000
00001FFE000000
70003FFF000380
F0007FFF8003C0
F800FFFFC007C0
F800FC0FC007C0
F801F807E007C0
F801F003E007C0
F803F003E007C0
F803E001F007C0
F803E001F007C0
F803E001F007C0
F803E001F007C0
F807C001F007C0
F807C000F807C0
F807C000F807C0
F807C000F807C0
F807C000F807C0
F807C000F807C0
F807C000F807C0
F807C000F807C0
F807C000F807C0
F807C000F807C0
F807C000F807C0
F807C000F807C0
F807C000F007C0
F803E001F007C0
F803E001F007C0
F803E001F007C0
F803E003F007C0
F801F003E007C0
F801F003E007C0
F800F807C007C0
F800FC0FC007C0
F8007C0F8007C0
F8007E1F8007C0
F8003F3F0007C0
F8001FFE0007C0
F8001FFC0007C0
F8000FFC0007C0
F80007F80007C0
F8000FFC0007C0
F8001FFE000FC0
7C007FFF800F80
7F01FFFFE03F80
3FFFFE1FFFFF00
3FFFFC0FFFFF00
1FFFF807FFFE00
07FFE001FFF800
00FF00003FC000
ENDCHAR
STARTCHAR uni007F
ENCODING 127
SWIDTH 956 0
DWIDTH 75 0
BBX 57 26 8 20
BITMAP
00000FFFF0000000
0001FFFFFF800000
000FFFFFFFF80000
007FFFFFFFFF0000
01FFFFFFFFFFC000
07FFFFFFFFFFE000
0FFFFFFFFFFFF800
1FFFFFFFFFFFFC00
3FFFFFFFFFFFFE00
7FFFFFFFFFFFFE00
7FFFFFFFFFFFFF00
FFFFFFFFFFFFFF00
FFFFFFFFFFFFFF80
FFFFFFFFFFFFFF80
FFFFFFFFFFFFFF00
7FFFFFFFFFFFFF00
7FFFFFFFFFFFFF00
3FFFFFFFFFFFFE00
1FFFFFFFFFFFFC00
0FFFFFFFFFFFF800
07FFFFFFFFFFF000
01FFFFFFFFFFC000
007FFFFFFFFF0000
001FFFFFFFF80000
0003FFFFFFC00000
00000FFFF8000000
ENDCHAR
STARTCHAR crossleft
ENCODING 128
SWIDTH 855 0
DWIDTH 67 0
BBX 64 26 2 21
BITMAP
0000000000000006
E00000000000003E
FC000000000001FC
7F00000000000FE0
0FE0000000003F80
01FC00000001FC00
007F0000000FF000
000FE000003F8000
0001FC0001FC0000
00007F0003E00000
00000FE003800000
000001FC00000000
0000003F80000000
0000000FE0000000
00000001FC000000
000001803F800000
00000FC00FE00000
00003F8001FC0000
0001FC00003F8000
000FE0000007F000
003F80000001FC00
01FC000000003F80
0FE00000000007F0
3F000000000001FC
FC0000000000003F
E000000000000007
ENDCHAR
STARTCHAR crossleft_purl
ENCODING 129
SWIDTH 866 0
DWIDTH 68 0
BBX 64 25 3 21
BITMAP
E000000000000008
F80000000000003C
7F000000000001FC
0FE0000000000FE0
03FC000000003F80
007F00000001FC00
000FE000000FE000
0001FC00007F0000
00007F8001FC0000
00000FE00FE00000
000001FC0F000000
0000003F84000000
0000000FE0000000
00000001FC000000
000001803F800000
00000FC00FF00000
00007F0001FC0000
0003FC00003F8000
000FE0000007F000
007F00000001FE00
03F8000000003F80
0FE00000000007F0
7F000000000000FE
F807FFF80000003F
C007FFF800000007
ENDCHAR
STARTCHAR crossright
ENCODING 130
SWIDTH 912 0
DWIDTH 71 0
BBX 64 25 4 21
BITMAP
300000000000000F
3E0000000000007F
1FC00000000001FC
07F0000000000FE0
00FE000000007F00
001FC0000001F800
0007F000000FE000
0000FE00007F0000
00001FC001F80000
000003E00FE00000
000000E07F000000
00000001F8000000
0000000FE0000000
0000007F00000000
000003F803C00000
00000FE003F00000
00007F0000FE0000
0003F800001FC000
000FE0000007F000
007F00000000FE00
03F8000000001FC0
0FE00000000007F0
7F000000000000FE
F80000000000001F
C000000000000007
ENDCHAR
STARTCHAR dip_purl
ENCODING 131
SWIDTH 653 0
DWIDTH 51 0
BBX 33 73 9 -14
BITMAP
000FF80000
007FFF0000
00FFFFC000
03F80FE000
07C001F000
0F8000F800
1F00003C00
1E00001E00
3C00001E00
7800000F00
7800000700
7000000780
F000000380
F000000380
E000000380
E000000380
E000000380
E000000380
E000000380
E000000380
E000000380
E000000380
E000000380
E000000380
E000000380
E000000380
E000000380
E000000380
E000000380
E000000380
E000000380
E000000380
E000000380
E000000380
E000000380
E000000380
E000000380
E000000380
E000000380
E000000380
E000000380
E000000380
E000000380
E000000380
E000000380
E000000380
E000000380
E000000380
E000000380
E000000380
E000000380
E000000380
E000000380
E000000380
E000000380
E000000380
E000000380
E000000380
E000000380
E000000380
E000000380
E000000380
E000000380
E000000380
E000000380
E000000380
E000000380
E000000380
E000000380
E000000380
E1FFFFC380
E1FFFFC380
01FFFFC000
ENDCHAR
STARTCHAR crossright_purl
ENCODING 132
SWIDTH 935 0
DWIDTH 73 0
BBX 64 25 5 24
BITMAP
0000000000000003
F00000000000000F
FE0000000000007F
3FC00000000003F8
07F0000000001FC0
00FE000000007F00
001FC0000003F800
0003F800001FC000
0000FE00007F0000
00001FC003F80000
000003C01FC00000
00000000FE000000
00000003F8000000
0000001FC0000000
000000FE01800000
000003F803F00000
00001FC000FC0000
0000FE00003F8000
0007F8000007F000
001FC0000001FC00
00FE000000003F80
07F00000000007F0
3FC00000000001FC
FE0000001FFFE03F
F00000003FFFE00F
ENDCHAR
STARTCHAR c2over1left
ENCODING 133
SWIDTH 942 0
DWIDTH 73 0
BBX 68 17 3 24
BITMAP
800000002000000010
E000000038000001F0
380000001E00001FC0
0F000000078003F800
03C0000000F01F8000
00F00000003C180000
003C0000000F000000
000F00000003C00000
0001E0000000F00000
0000780000001E0000
00001E000000078000
00000780000001E000
000781E00000007800
007F003C0000001E00
0FF0000F0000000380
FE000003C0000000F0
E0000000C000000030
ENDCHAR
STARTCHAR c2over1left_purl
ENCODING 134
SWIDTH 941 0
DWIDTH 73 0
BBX 69 17 3 28
BITMAP
C000000038000000F8
F00000001E00000FE0
3E000000078001FE00
0780000000F00FC000
01E00000003C0C0000
00780000000F000000
001E00000003C00000
0003C0000000F00000
0000F00000001E0000
00003C000000078000
00000F00000001E000
000003C00000007800
000F80780000001E00
01FE001E00000003C0
1FC0000780000000F0
FC07FF01E000000038
8003FF000000000000
ENDCHAR
STARTCHAR c2over1right
ENCODING 135
SWIDTH 941 0
DWIDTH 73 0
BBX 69 18 3 25
BITMAP
000000000000000008
F0000000C000000038
7F00000780000001E0
07F8001E0000000780
003F80780000001E00
000381E00000007800
00000780000001E000
00001C000000070000
0000F00000003C0000
0003C0000000F00000
000F00000003C00000
003C0000000F000000
00F00000003C0E0000
0780000001E00FF000
1E000000078000FF00
780000001E000007F0
E00000003800000078
800000000000000000
ENDCHAR
STARTCHAR c2over1right_purl
ENCODING 136
SWIDTH 915 0
DWIDTH 71 0
BBX 68 18 2 24
BITMAP
800000004000000000
FC000001C000000030
1FC0000780000000F0
01FE003C0000000380
000F80F00000001E00
000003C00000007800
00000F00000001E000
00003C000000078000
0000E00000001E0000
000780000000700000
001E00000003C00000
00780000000F000000
01E00000003C100000
0780000000F01F8000
1C00000003C003F800
F00000001E00003FC0
C0000000380FFE03F0
000000002007FE0010
ENDCHAR
STARTCHAR uni0089
ENCODING 137
SWIDTH 957 0
DWIDTH 75 0
BBX 71 13 2 28
BITMAP
000000000000020002
C000007000003E003E
7C00001F0001E003E0
07C00001F00F003E00
007E00001F0001E000
0007E00001F00F0000
00007E00001F000000
000007E00001F00000
0000E03E00001F0000
001F8003E00001F000
01F001E03E00001F80
1F001F0003E00001F8
F000F000003800001E
ENDCHAR
STARTCHAR c2over2left_purl
ENCODING 138
SWIDTH 959 0
DWIDTH 75 0
BBX 71 12 2 27
BITMAP
E000007800000E000E
3E00000F8001F800F8
03E00000F80F001F00
003E00000F8001F000
0003E00000F80F0000
00003E00000F800000
000063E00001F80000
0007C03E00000F8000
007C0063E00001F800
03C007C03E00001F80
3E003C0003E00001F0
E0FEE0FE003800001E
ENDCHAR
STARTCHAR c2over2right
ENCODING 139
SWIDTH 956 0
DWIDTH 75 0
BBX 71 12 2 29
BITMAP
7000F000000C000006
1F001F0000F800007C
01F001F00F800007C0
001F0011F800007C00
0001F01F000007C000
000001F000007C0000
00001F000007C00000
0001F000007C0F8000
001F000007C000F800
01F00000FC0F800F80
1F00000FC000F800F8
F000003800000F000E
ENDCHAR
STARTCHAR c2over2right_purl
ENCODING 140
SWIDTH 956 0
DWIDTH 75 0
BBX 71 13 2 26
BITMAP
C001C000001800000E
7C007C0001F0000078
07C007801F000007C0
00F800E0F000007C00
000F800F800007C000
0000E0F800003C0000
00000F800003E00000
00007800003E0E0000
0007C00003E007C000
007C00001E0C007C00
07C00001F007C007C0
7C00001F00007C0078
C000007000FE0EFE0E
ENDCHAR
STARTCHAR decrease3to1centered
ENCODING 141
SWIDTH 824 0
DWIDTH 64 0
BBX 50 52 7 6
BITMAP
000001E0000000
000001E0000000
000001E0000000
000001E0000000
000001E0000000
000001E0000000
000001E0000000
000001E0000000
000001E0000000
000001E0000000
000001E0000000
000001E0000000
000001E0000000
000001E0000000
000001E0000000
000001E0000000
000001E0000000
000001E0000000
000001E0000000
000001E0000000
000001E0000000
000001E0000000
000001E0000000
000001E0000000
000003F0000000
000007F8000000
00000FFC000000
00001FFE000000
00003FFF000000
00007FFF800000
0000FFFFC00000
0001FDEFE00000
0003F9E7F00000
0007F1E3F80000
000FE1E1FC0000
001FC1E0FE0000
003F81E07F0000
007F01E03F8000
00FE01E01FC000
01FC01E00FE000
03F801E007F000
07F001E003F800
0FE001E001FC00
1FC001E000FE00
3F8001E0007F00
7F0001E0003F80
FE0001E0001FC0
FC0001E0000FC0
F80001E00007C0
F00001E00003C0
200001E0000100
000000C0000000
ENDCHAR
STARTCHAR decrease3to1left
ENCODING 142
SWIDTH 824 0
DWIDTH 64 0
BBX 50 52 9 6
BITMAP
70000000000000
F8000000000000
FC000000000000
FE000000000000
7F000000000000
3F800000000000
1FC00000000000
0FE00000000000
07F00000000000
03F80000000000
01FC0000000000
00FE0000000000
007F0000000000
003F8000000000
001FC000000000
000FE000000000
0007F000000000
0003F800000000
0001FC00000000
0000FE00000000
00007F00000000
00003F80000000
00001FC0000000
00000FE0000000
000007F0000000
000007F8000000
00000FFC000000
00001FFE000000
00003FFF000000
00007FFF800000
0000FFFFC00000
0001FDEFE00000
0003F9E7F00000
0007F1E3F80000
000FE1E1FC0000
001FC1E0FE0000
003F81E07F0000
007F01E03F8000
00FE01E01FC000
01FC01E00FE000
03F801E007F000
07F001E003F800
0FE001E001FC00
1FC001E000FE00
3F8001E0007F00
7F0001E0003F80
FE0001E0001FC0
FC0001E0000FC0
F80001E00007C0
F00001E00003C0
200001E0000100
000000C0000000
ENDCHAR
STARTCHAR decrease3to1right
ENCODING 143
SWIDTH 824 0
DWIDTH 64 0
BBX 50 52 7 6
BITMAP
00000000000380
000000000007C0
00000000000FC0
00000000001FC0
00000000003F80
00000000007F00
0000000000FE00
0000000001FC00
0000000003F800
0000000007F000
000000000FE000
000000001FC000
000000003F8000
000000007F0000
00000000FE0000
00000001FC0000
00000003F80000
00000007F00000
0000000FE00000
0000001FC00000
0000003F800000
0000007F000000
000000FE000000
000001FC000000
000003F8000000
000007F8000000
00000FFC000000
00001FFE000000
00003FFF000000
00007FFF800000
0000FFFFC00000
0001FDEFE00000
0003F9E7F00000
0007F1E3F80000
000FE1E1FC0000
001FC1E0FE0000
003F81E07F0000
007F01E03F8000
00FE01E01FC000
01FC01E00FE000
03F801E007F000
07F001E003F800
0FE001E001FC00
1FC001E000FE00
3F8001E0007F00
7F0001E0003F80
FE0001E0001FC0
FC0001E0000FC0
F80001E00007C0
F00001E00003C0
000001E0000100
000000C0000000
ENDCHAR
STARTCHAR decrease4to1left
ENCODING 144
SWIDTH 824 0
DWIDTH 64 0
BBX 51 52 9 6
BITMAP
70000000000000
F8000000000000
FC000000000000
7E000000000000
7F000000000000
3F800000000000
1FC00000000000
0FE00000000000
07F00000000000
03F80000000000
01FC0000000000
00FE0000000000
007F0000000000
003F8000000000
001FC000000000
000FE000000000
0007F000000000
0003F800000000
0001FC00000000
0000FE00000000
00007F00000000
00003F80000000
00001FC0000000
00000FE0000000
000007F0000000
000003F8000000
000007FC000000
00000FFE000000
00001FFF000000
00003FFF800000
00007FFFC00000
0000FFFFE00000
0001FFFFF00000
0003FFFFF80000
0007F7FDFC0000
000FEFBEFE0000
001FCFBE7F0000
003F8FBE3F8000
007F1F1F1FC000
00FE1F1F0FE000
01FC3F1F87F000
03F83E0F83F800
07F03E0F81FC00
0FE07E0FC0FE00
1FC07C07C07F00
3F807C07C03F80
7F00FC03E01FC0
FE00F803E00FE0
FC00F803E007E0
7801F001F003C0
2000F001E00000
00006000C00000
ENDCHAR
STARTCHAR decrease4to1right
ENCODING 145
SWIDTH 824 0
DWIDTH 64 0
BBX 50 52 6 6
BITMAP
00000000000380
000000000007C0
00000000000FC0
00000000001FC0
00000000003F80
00000000007F00
0000000000FE00
0000000001FC00
0000000003F800
0000000007F000
000000000FE000
000000001FC000
000000003F8000
000000007F0000
00000000FE0000
00000001FC0000
00000003F80000
00000007F00000
0000000FE00000
0000001FC00000
0000003F800000
0000007F000000
000000FE000000
000001FC000000
000003F8000000
000007F8000000
00000FFC000000
00001FFE000000
00003FFF000000
00007FFF800000
0000FFFFC00000
0001FFFFE00000
0003FFFFF00000
0007FFFBF80000
000FEFFDFC0000
001FCFFCFE0000
003F9F7E7F0000
007F1F3E3F8000
00FE1F3E1FC000
01FC3E3F0FE000
03F83E1F07F000
07F03E1F03F800
0FE07C0F81FC00
1FC07C0F80FE00
3F80FC0F807F00
7F00F807C03F80
FE00F807C01FC0
FC01F807C00FC0
F801F003E007C0
F001F003E003C0
0001E003E00100
0000E001C00000
ENDCHAR
STARTCHAR decrease7to1
ENCODING 153
SWIDTH 842 0
DWIDTH 66 0
BBX 53 51 7 8
BITMAP
000000F8000000
000001F8000000
000001FC000000
000003FE000000
000007FF000000
00000FFF800000
00000FFFC00000
00001F8FC00000
00003F07E00000
00007E03F00000
0000FE01F80000
0001FC00FC0000
0003F800FE0000
0007F0007F0000
000FE0003F8000
001FC0001FC000
001F80000FE000
003F000007E000
007E000003F000
00FC000001F800
01FC000000FC00
03F80000007E00
07F00000007F00
0FE00000003F80
1FC00000001FC0
3F803FFFF00FE0
3F007FFFF007F0
7E003FFFF003F0
FC000000F001F8
F8000001E000F8
F8000001C00078
60000003C00030
00000003800000
00000007000000
00000007000000
0000000E000000
0000000E000000
0000001C000000
0000001C000000
0000003C000000
00000038000000
00000078000000
00000078000000
00000070000000
000000F0000000
000000F0000000
000000E0000000
000000E0000000
000001E0000000
000001E0000000
000001C0000000
ENDCHAR
STARTCHAR decreaseleft2w
ENCODING 154
SWIDTH 911 0
DWIDTH 71 0
BBX 64 25 5 20
BITMAP
F000000000000000
FC00000000000000
3F80000000000000
07F0000000000000
01FC000000000000
003F800000000000
0007F00000000000
0001FC0000000000
00003F8000000000
000007F000000000
000001FE00000000
0000003F80000000
0000000FF0000000
0000003FFE000000
000001FC3F800000
00000FE007F00000
00007F0000FE0000
0001FC00003FC000
000FE0000007F000
007F00000000FE00
01FC000000001FC0
0FE00000000007F0
7F000000000000FE
F80000000000001F
E000000000000007
ENDCHAR
STARTCHAR decreaseleft
ENCODING 155
SWIDTH 824 0
DWIDTH 64 0
BBX 50 51 9 7
BITMAP
70000000000000
F8000000000000
FC000000000000
FE000000000000
7F000000000000
3F800000000000
1FC00000000000
0FE00000000000
07F00000000000
03F80000000000
01FC0000000000
00FE0000000000
007F0000000000
003F8000000000
001FC000000000
000FE000000000
0007F000000000
0003F800000000
0001FC00000000
0000FE00000000
00007F00000000
00003F80000000
00001FC0000000
00000FE0000000
000007F0000000
000007F8000000
00000FFC000000
00001FFE000000
00003FFF000000
00007F3F800000
0000FE1FC00000
0001FC0FE00000
0003F807F00000
0007F003F80000
000FE001FC0000
001FC000FE0000
003F80007F0000
007F00003F8000
00FE00001FC000
01FC00000FE000
03F8000007F000
07F0000003F800
0FE0000001FC00
1FC0000000FE00
3F800000007F00
7F000000003F80
7E000000001FC0
FC000000000FC0
F80000000007C0
F00000000003C0
20000000000000
ENDCHAR
STARTCHAR decreaseleft_purl
ENCODING 156
SWIDTH 824 0
DWIDTH 64 0
BBX 50 55 9 3
BITMAP
60000000000000
F8000000000000
FC000000000000
FE000000000000
7F000000000000
3F800000000000
1FC00000000000
0FE00000000000
07F00000000000
03F80000000000
01FC0000000000
00FE0000000000
007F0000000000
003F8000000000
001FC000000000
000FE000000000
0007F000000000
0003F800000000
0001FC00000000
0000FE00000000
00007F00000000
00003F80000000
00001FC0000000
00000FE0000000
000007F0000000
000003F8000000
000007FC000000
00000FFE000000
00001FFF000000
00003FBF800000
00007F1FC00000
0000FE0FE00000
0001FC07F00000
0003F803F80000
0007F001FC0000
000FE000FE0000
001FC0007F0000
003F80003F8000
007F00001FC000
00FE00000FE000
01FC000007F000
03F8000003F800
07F0000001FC00
0FE0000000FE00
1FC00000007F00
3F800000003F80
7F000000001FC0
FE000000000FC0
FC0000000007C0
F80000000003C0
700FFFFFFE0180
001FFFFFFE0000
001FFFFFFF0000
001FFFFFFE0000
000FFFFFFC0000
ENDCHAR
STARTCHAR uni00A0
ENCODING 160
SWIDTH 653 0
DWIDTH 51 0
BBX 33 72 9 -13
BITMAP
000FF80000
007FFF0000
00FFFFC000
03F80FE000
07C001F000
0F8000F800
1F00003C00
1E00001E00
3C00000E00
3800000F00
7800000700
7000000780
F000000380
F000000380
E000000380
E000000380
E000000380
E000000380
E000000380
E000000380
E000000380
E000000380
E000000380
E000000380
E000000380
E000000380
E000000380
E000000380
E000000380
E000000380
E000000380
E000000380
E000000380
E000000380
E000000380
E000000380
E000000380
E000000380
E000000380
E000000380
E000000380
E000000380
E000000380
E000000380
E000000380
E000000380
E000000380
E000000380
E000000380
E000000380
E000000380
E000000380
E000000380
E000000380
E000000380
E000000380
E000000380
E000000380
E000000380
E000000380
E000000380
E000000380
E000000380
E000000380
E000000380
E000000380
E000000380
E000000380
E000000380
E000000380
E000000380
E000000380
ENDCHAR
STARTCHAR increase1to3
ENCODING 162
SWIDTH 841 0
DWIDTH 66 0
BBX 53 52 6 7
BITMAP
000001FC000000
000007FF000000
00000FFF800000
00001E03C00000
00003C01E00000
00003800E00000
00001800E00000
00000000E00000
00000001E00000
00000001C00000
00000007C00000
000001FF000000
000001FC000000
000001FF800000
00000007C00000
00000001E00000
00000000E00000
00000000F00000
00000000F00000
00000000F00000
F0007000F00070
F8007800E000F8
FC003C01E001F8
FE003E03E003F8
7F001FFFC007F0
3F000FFF000FE0
1F8001FC001FC0
0FC00000003F80
07E00000003F00
07F00000007E00
03F8000000FC00
01FC000001F800
00FE000003F800
007F000007F000
003F80000FE000
001F80001FC000
000FC0003F8000
0007E0007F0000
0003F0007E0000
0003F800FC0000
0001FC01F80000
0000FE03F00000
00007F07F00000
00003F8FE00000
00001F9FC00000
00000FFF800000
000007FF000000
000003FE000000
000001FC000000
000001F8000000
000000F0000000
00000060000000
ENDCHAR
STARTCHAR nostitch
ENCODING 166
SWIDTH 991 0
DWIDTH 77 0
BBX 76 59 1 3
BITMAP
FFFFFFFFFFFFFFFFFFF0
FFFFFFFFFFFFFFFFFFF0
FFFFFFFFFFFFFFFFFFF0
FFFFFFFFFFFFFFFFFFF0
FFFFFFFFFFFFFFFFFFF0
FFFFFFFFFFFFFFFFFFF0
FFFFFFFFFFFFFFFFFFF0
FFFFFFFFFFFFFFFFFFF0
FFFFFFFFFFFFFFFFFFF0
FFFFFFFFFFFFFFFFFFF0
FFFFFFFFFFFFFFFFFFF0
FFFFFFFFFFFFFFFFFFF0
FFFFFFFFFFFFFFFFFFF0
FFFFFFFFFFFFFFFFFFF0
FFFFFFFFFFFFFFFFFFF0
FFFFFFFFFFFFFFFFFFF0
FFFFFFFFFFFFFFFFFFF0
FFFFFFFFFFFFFFFFFFF0
FFFFFFFFFFFFFFFFFFF0
FFFFFFFFFFFFFFFFFFF0
FFFFFFFFFFFFFFFFFFF0
FFFFFFFFFFFFFFFFFFF0
FFFFFFFFFFFFFFFFFFF0
FFFFFFFFFFFFFFFFFFF0
FFFFFFFFFFFFFFFFFFF0
FFFFFFFFFFFFFFFFFFF0
FFFFFFFFFFFFFFFFFFF0
FFFFFFFFFFFFFFFFFFF0
FFFFFFFFFFFFFFFFFFF0
FFFFFFFFFFFFFFFFFFF0
FFFFFFFFFFFFFFFFFFF0
FFFFFFFFFFFFFFFFFFF0
FFFFFFFFFFFFFFFFFFF0
FFFFFFFFFFFFFFFFFFF0
FFFFFFFFFFFFFFFFFFF0
FFFFFFFFFFFFFFFFFFF0
FFFFFFFFFFFFFFFFFFF0
FFFFFFFFFFFFFFFFFFF0
FFFFFFFFFFFFFFFFFFF0
FFFFFFFFFFFFFFFFFFF0
FFFFFFFFFFFFFFFFFFF0
FFFFFFFFFFFFFFFFFFF0
FFFFFFFFFFFFFFFFFFF0
FFFFFFFFFFFFFFFFFFF0
FFFFFFFFFFFFFFFFFFF0
FFFFFFFFFFFFFFFFFFF0
FFFFFFFFFFFFFFFFFFF0
FFFFFFFFFFFFFFFFFFF0
FFFFFFFFFFFFFFFFFFF0
FFFFFFFFFFFFFFFFFFF0
FFFFFFFFFFFFFFFFFFF0
FFFFFFFFFFFFFFFFFFF0
FFFFFFFFFFFFFFFFFFF0
FFFFFFFFFFFFFFFFFFF0
FFFFFFFFFFFFFFFFFFF0
FFFFFFFFFFFFFFFFFFF0
FFFFFFFFFFFFFFFFFFF0
FFFFFFFFFFFFFFFFFFF0
FFFFFFFFFFFFFFFFFFF0
ENDCHAR
STARTCHAR passleft
ENCODING 167
SWIDTH 911 0
DWIDTH 71 0
BBX 64 26 4 23
BITMAP
007F000000000000
00FFC00000000002
00E3F8000000001F
00C07C00000000FE
00C00800000007F0
00F8000000001FC0
007F00000000FE00
001FC0000007F000
0003F800001FC000
00007F0000FE0000
00001FC003F00000
000003F803800000
0000007F00000000
0000001FE0000000
00000003F8000000
000000007F000000
000003C00FE00000
00001FC003FC0000
0000FE00007F0000
0007F800000FE000
001FC0000003FC00
00FE000000007F00
07F0000000000FE0
3F800000000001FC
FC0000000000007F
F00000000000000F
ENDCHAR
STARTCHAR twistleft_purl
ENCODING 174
SWIDTH 911 0
DWIDTH 71 0
BBX 64 28 5 19
BITMAP
07FF000000000007
0FFFF0000000001F
3E07FE00000000FE
38003FC0000007F0
1C0003F800001F80
1C00007E0000FE00
0E00001F8003F000
07800003E01FC000
03C00000F07E0000
01F000003CF80000
007800001E400000
003F000007800000
000FC00003C00000
0003F00001E00600
0000FE0000F00E00
00003FC000381E00
000007F8001C7C00
0000E0FFFFFFF000
0007E00FFFFFE000
003F80007FFF8000
01FE000000038000
07F000000001C000
3F8000000000C000
FC07FFF80000E000
F007FFF80000E000
000000000000E000
000000000000E000
0000000000006000
ENDCHAR
STARTCHAR twistleft
ENCODING 175
SWIDTH 911 0
DWIDTH 71 0
BBX 64 28 5 21
BITMAP
0FFC000000000000
1FFFC00000000007
7C3FF8000000001F
7000FF00000000FE
70000FE0000007F0
780001F800001F80
7C00007E0000FE00
3E00000F8007F000
1F000003E01FC000
0FC00000F07E0000
07F000007CF00000
01FC00001E400000
007F00000F000000
000FC00003C00C00
0003F80001E01C00
00007F0000F03800
00001FF00078F000
0000007FF9FFE000
0001E000FFFF8000
0007E00000FE0000
003F8000000F0000
01FC000000038000
0FE0000000038000
3F80000000018000
FC00000000018000
E000000000018000
000000000001C000
0000000000018000
ENDCHAR
STARTCHAR twist_purl
ENCODING 176
SWIDTH 823 0
DWIDTH 64 0
BBX 51 55 7 3
BITMAP
000003F8000000
00000FFE000000
00003FFF800000
00007FFFC00000
0000FFFFE00000
0000FEEFE00000
0001F803F00000
0003F001F80000
0003F001F80000
0003E000F80000
0007C0007C0000
0007C0007C0000
0007C0007C0000
000F80003E0000
000F80003E0000
000F80003E0000
000F80003E0000
000F80003E0000
000F80003E0000
000F00001E0000
000F00001E0000
000F00001E0000
000F00001E0000
000F80003E0000
000F80003E0000
000F80003E0000
000F80003E0000
000F80003E0000
0007C0007C0000
0007C0007C0000
0007E000FC0000
0003E000F80000
0003F001F80000
0001F803F00000
0001FC07F00000
0000FE0FE00000
00007F1FC00000
00003FBF800080
78001FFF0003C0
FC000FFE0007E0
FC0007FC0007E0
7F0007FC001FC0
3FC07FFFC07F80
1FFFFFFFFFFF00
0FFFFFFFFFFE00
07FFFF1FFFFC00
01FFF803FFF000
001F00001F0000
00000000000000
00000000000000
000FFFFFFE0000
001FFFFFFF0000
001FFFFFFF0000
001FFFFFFF0000
000FFFFFFE0000
ENDCHAR
STARTCHAR twistright
ENCODING 178
SWIDTH 911 0
DWIDTH 71 0
BBX 64 28 3 18
BITMAP
0000000000000FF8
000000000000FFFE
F0000000000FFF3E
FE000000007FC00F
3F80000001FC0007
07F000000FE00006
00FC00003F00000E
003F8000FC00003C
0007F001F0000078
0001FC07C00001F0
00003E0F000003E0
0000063E00000F80
0000007800003E00
001800F00001F800
001C01E00007E000
000F0380003F8000
0007870003FC0000
0003FF83FFE00000
0000FFFFFF060000
00003FFFC00FC000
000078000003F800
000070000000FE00
0000E00000001FC0
0000E000000003F8
0000C0000000007F
0000C0000000001F
0000C00000000003
0000C00000000000
ENDCHAR
STARTCHAR twist_straight
ENCODING 179
SWIDTH 705 0
DWIDTH 55 0
BBX 32 51 10 7
BITMAP
0007F000
003FFC00
007FFE00
00FFFF80
01FFFF80
03FC1FC0
03F00FE0
07E007E0
07C003F0
0FC001F0
0F8001F0
0F8000F8
1F0000F8
1F0000F8
1F000078
1F00007C
1E00007C
3E00007C
3E00007C
3E00007C
3E00007C
3E00007C
3E00007C
3E00007C
3E00007C
1F00007C
1F00007C
1F0000F8
1F0000F8
0F8001F8
0F8001F0
07C001F0
07C003E0
07E007E0
03F007C0
03F00FC0
01F81F80
00FC3F80
007E7F00
007FFE00
003FFC00
001FF800
000FF000
001FF800
007FFF00
07FFFFE0
7FFFFFFE
FFFC3FFF
FFF00FFF
FF8001FF
7800000E
ENDCHAR
ENDFONT
